<svg width="250" height="75" viewBox="0 0 250 75" fill="none" xmlns="http://www.w3.org/2000/svg">
    <path d="M175.46 17.912H170.103L170.128 57.1042H191.824V52.2564H175.484L175.46 17.912Z" fill="#8C929D"/>
    <path d="M212.469 50.2268C211.118 51.6015 208.882 52.9763 205.835 52.9763C201.757 52.9763 200.11 50.9986 200.11 48.4179C200.11 44.5348 202.862 42.6777 208.71 42.6777C209.816 42.6777 211.585 42.7983 212.494 42.9672V50.2268H212.469ZM206.916 26.4702C202.592 26.4702 198.612 27.9656 195.516 30.498L197.408 33.7299C199.594 32.4757 202.273 31.2216 206.13 31.2216C210.528 31.2216 212.469 33.4404 212.469 37.1547V39.06C211.609 38.8912 209.84 38.7706 208.759 38.7706C199.373 38.7706 194.607 42.0024 194.607 48.7556C194.607 54.8092 198.391 57.8481 204.115 57.8481C207.973 57.8481 211.683 56.1116 212.961 53.2898L213.943 57.1246H217.727V37.0582C217.703 30.7151 214.902 26.4702 206.916 26.4702Z"
          fill="#8C929D"/>
    <path d="M235.01 53.1558C232.995 53.1558 231.226 52.9146 229.899 52.3117V36.0801V34.1988C231.717 32.7035 233.978 31.6182 236.853 31.6182C242.037 31.6182 244.027 35.2118 244.027 41.0243C244.027 49.2728 240.808 53.1558 235.01 53.1558ZM237.27 26.481C232.479 26.481 229.899 29.6887 229.899 29.6887V24.6239L229.875 17.919H227.467H224.641L224.666 56.1465C227.295 57.2318 230.882 57.8106 234.789 57.8106C244.789 57.8106 249.605 51.5399 249.605 40.7108C249.58 32.1488 245.133 26.481 237.27 26.481Z"
          fill="#8C929D"/>
    <path d="M117.14 22.1642C121.882 22.1642 124.954 23.7078 126.944 25.2755L129.253 21.3442C126.133 18.643 121.907 17.1959 117.386 17.1959C105.985 17.1959 98 24.0213 98 37.7929C98 52.2156 106.624 57.8352 116.477 57.8352C121.415 57.8352 125.617 56.7016 128.369 55.5681L128.246 40.1565V38.3476V35.3087H113.627V40.1565H122.963L123.086 51.8539C121.858 52.4568 119.745 52.9392 116.87 52.9392C108.958 52.9392 103.651 48.0432 103.651 37.7447C103.627 27.2532 109.106 22.1642 117.14 22.1642Z"
          fill="#8C929D"/>
    <path d="M154.862 17.9066H149.629L149.653 24.4908V27.1921V28.7598V31.5093V47.1862V47.2344C149.653 53.5775 152.454 57.8223 160.44 57.8223C161.545 57.8223 162.626 57.7259 163.658 57.5329V52.9263C162.897 53.0469 162.086 53.0952 161.226 53.0952C156.828 53.0952 154.887 50.8763 154.887 47.162V31.4852H163.658V27.1921H154.887L154.862 17.9066Z"
          fill="#8C929D"/>
    <path d="M136.319 57.1042H141.553V27.1975H136.319V57.1042Z" fill="#8C929D"/>
    <path d="M136.319 23.0733H141.553V17.9361H136.319V23.0733Z" fill="#8C929D"/>
    <path d="M41.4749 75L56.7573 28.8564H26.2145L41.4749 75Z" fill="#E24329"/>
    <path d="M4.8089 28.8564L0.155048 42.8754C-0.266087 44.1484 0.188708 45.5535 1.30027 46.347L41.4749 74.9998L4.8089 28.8564Z"
          fill="#FCA326"/>
    <path d="M4.8089 28.8564H26.2145L17.0021 1.06633C16.5306 -0.355443 14.4758 -0.355443 13.9874 1.06633L4.8089 28.8564Z"
          fill="#E24329"/>
    <path d="M78.1629 28.8564L82.8001 42.8754C83.2212 44.1484 82.7664 45.5535 81.6549 46.347L41.4749 75L78.1629 28.8564Z"
          fill="#FCA326"/>
    <path d="M78.1629 28.8564H56.7573L65.9528 1.06633C66.4243 -0.355443 68.4791 -0.355443 68.9675 1.06633L78.1629 28.8564Z"
          fill="#E24329"/>
    <path d="M41.4749 75L56.7573 28.8564H78.1629L41.4749 75Z" fill="#FC6D26"/>
    <path d="M41.4749 75L4.8089 28.8564H26.2145L41.4749 75Z" fill="#FC6D26"/>
</svg>
