<?xml version="1.0" encoding="utf-8"?>
<!-- Generator: Adobe Illustrator 19.2.1, SVG Export Plug-In . SVG Version: 6.00 Build 0)  -->
<svg version="1.1" id="layer" xmlns="http://www.w3.org/2000/svg" xmlns:xlink="http://www.w3.org/1999/xlink" x="0px" y="0px"
	 viewBox="0 0 652 652" style="enable-background:new 0 0 652 652;" xml:space="preserve">
<style type="text/css">
	.st0{fill:#F0F0F0;}
	.st1{fill:#00AAF0;}
	.st2{fill:#50468C;}
	.st3{fill:#F06428;}
</style>
<g id="text">
	<path d="M320.4,335.5c-1.1,0-1.7,0.6-2.2,1.1c-5,5-9.5,6.7-16.3,6.7c-11.8,0-20.7-9.5-20.7-21.9c0-12.3,9-21.9,20.7-21.9
		c6.2,0,10.6,2.2,15.7,6.2c0.6,0.6,1.7,1.1,2.2,1.1c1.7,0,3.4-1.7,3.4-3.4c0-0.6-0.6-1.7-1.1-2.8c-4.5-3.9-10.1-7.8-20.2-7.8
		c-15.7,0-27.5,12.3-27.5,28.6v0.6c0,16.3,11.8,28.6,27.5,28.6c8.4,0,14.6-2.2,20.7-8.4c0.6-0.6,1.1-1.7,1.1-2.2
		C323.7,337.2,322,335.5,320.4,335.5z"/>
	<path d="M349.5,292.9c-1.7,0-3.4,1.7-3.4,3.4V345c0,1.7,1.7,3.4,3.4,3.4s3.4-1.7,3.4-3.4v-48.8
		C352.9,294.6,351.2,292.9,349.5,292.9z"/>
	<path d="M402.2,318.1l19.1-19.1c1.1-1.1,1.1-1.7,1.1-2.2c0-1.7-1.7-3.4-3.4-3.4c-1.1,0-1.7,0.6-2.2,1.1L385.9,326v-29.1
		c0-1.7-1.7-3.4-3.4-3.4s-3.4,1.1-3.4,3.4v48.8c0,1.7,1.7,3.4,3.4,3.4s3.4-1.7,3.4-3.4v-11.2l11.8-11.8l20.2,24.7
		c0.6,1.1,1.7,1.1,2.8,1.1c1.7,0,3.4-1.7,3.4-3.4c0-1.1-0.6-1.7-1.1-2.2L402.2,318.1z"/>
	<path d="M480.6,342.2h-28v-46c0-1.7-1.7-3.4-3.4-3.4c-1.7,0-3.4,1.7-3.4,3.4V345c0,1.7,1.7,3.4,3.4,3.4h31.4c1.7,0,3.4-1.7,3.4-3.4
		C484,343.4,482.3,342.2,480.6,342.2z"/>
	<path d="M541.7,292.9c-1.7,0-3.4,1.7-3.4,3.4v29.1c0,11.2-5.6,17.4-16.3,17.4c-10.1,0-16.3-6.7-16.3-17.9v-28.6
		c0-1.7-1.7-3.4-3.4-3.4c-1.7,0-3.4,1.7-3.4,3.4v29.1c0,14.6,9,24.1,23,24.1c14,0,23-9.5,23-24.7v-28.6
		C545.1,294.6,543.4,292.9,541.7,292.9z"/>
	<path d="M617.4,293.5L617.4,293.5c-1.7,0-2.8,0.6-3.4,1.7l-19.1,28l-19.6-28.6c-0.6-0.6-1.1-1.7-2.8-1.7H572
		c-1.7,0-3.4,1.7-3.4,3.4V345c0,1.7,1.7,3.4,3.4,3.4c1.7,0,3.4-1.7,3.4-3.4v-38.7l16.3,24.1c0.6,1.1,1.7,1.7,2.8,1.7
		c1.1,0,2.2-0.6,2.8-1.7l16.3-24.1v39.2c0,1.7,1.7,3.4,3.4,3.4s3.4-1.7,3.4-3.4v-48.8C621.3,294.6,619.6,293.5,617.4,293.5z"/>
</g>
<g id="sign">
	<circle class="st0" cx="118.6" cy="321.5" r="98.1"/>
	<path class="st1" d="M120.8,366.3c-24.1,1.7-45.4-16.8-47.1-41.5c-1.7-21.3,11.8-39.8,30.8-46L99,261
		c-27.5,8.4-46.5,35.3-44.3,65.6c2.2,34.7,32.5,61.6,67.2,58.8c5-0.6,9.5-1.1,14-2.8l-5.6-17.9C127.6,365.2,124.2,365.8,120.8,366.3
		"/>
	<path class="st2" d="M88.3,351.2c16.3,16.3,42.6,16.3,58.3,0l-9.5-10.1c-10.6,10.6-28,10.6-38.7,0s-10.6-28.6,0-39.2l-9.5-10.1
		C72.1,308.1,72.1,334.9,88.3,351.2"/>
	<path class="st3" d="M164,368.6c-25.2,25.8-66.7,25.8-92.5,0c-12.9-12.9-19.1-29.7-19.1-47.1l0,0c0-16.8,6.2-33.6,19.1-47.1
		c25.2-25.8,66.7-25.8,92.5,0l19.1-19.1c-36.4-37-93.6-37.5-130.6,0C34,273.9,25.6,298,25.6,322.1l0,0c0,24.1,9,48.2,26.9,66.1
		c35.9,36.4,94.7,36.4,130.6,0L164,368.6z"/>
</g>
</svg>
