<?xml version="1.0" encoding="UTF-8"?>
<svg xmlns="http://www.w3.org/2000/svg" id="_Шар_1" data-name="Шар 1" viewBox="0 0 800 527.47">
  <defs>
    <style>
      .cls-1 {
        fill: #2a367e;
      }

      .cls-2 {
        fill: #da1f26;
      }
    </style>
  </defs>
  <path class="cls-1" d="M221.53,264.6h26.77v16.62c0,8.36-1.57,13.72-5.03,16.73-3.23,2.9-8.31,4.02-19.08,4.02-12.82,0-18.85-1.45-22.54-5.69-3.35-3.57-4.79-9.82-4.79-19.86v-24.99c0-10.93,1.67-17.19,5.68-20.78,3.79-3.35,9.7-4.69,21.2-4.69,8.37,0,13.39,.66,16.96,2.08,5.13,2.08,7.6,6.36,7.6,13.16v7.47h-7.27v-2.68c0-11.15-2.35-12.94-17.52-12.94-17.19,0-19.41,2.08-19.41,18.7v24.21c0,16.84,2.01,18.63,20.64,18.63,14.55,0,16.29-1.67,16.29-15.59v-7.37h-19.49v-7.06Z"></path>
  <path class="cls-1" d="M265.04,276.54v4.79c0,12.39,2.01,14.73,12.72,14.73,9.92,0,11.15-1.12,11.38-10.49h6.58v1.9c0,11.49-3.79,14.55-18.29,14.55-16.41,0-19.64-4.35-19.64-26.23s3.46-27.77,19.52-27.77c14.28,0,18.4,4.69,18.4,20.64v7.93l-30.67-.04Zm24.1-6.59c-.11-7.8-.45-10.15-1.67-12.16-1.56-2.8-4.69-3.91-10.39-3.91s-8.93,1.11-10.48,3.91c-1.23,2.01-1.56,4.57-1.56,12.16h24.11Z"></path>
  <path class="cls-1" d="M313.11,276.54v4.79c0,12.39,2.02,14.73,12.72,14.73,9.93,0,11.16-1.12,11.38-10.49h6.59v1.9c0,11.49-3.79,14.55-18.3,14.55-16.4,0-19.64-4.35-19.64-26.23s3.46-27.77,19.52-27.77c14.29,0,18.41,4.69,18.41,20.64v7.93l-30.68-.04Zm24.1-6.59c-.1-7.8-.44-10.15-1.67-12.16-1.56-2.8-4.69-3.91-10.39-3.91s-8.93,1.11-10.48,3.91c-1.24,2.01-1.57,4.57-1.57,12.16h24.12Z"></path>
  <path class="cls-1" d="M363.98,276.54h-2.9v24.65h-6.69v-74.41h6.69v43.17h3.12l15.59-21.2h8.25l-18.63,24.21,21.43,28.22h-8.81l-18.04-24.65Z"></path>
  <path class="cls-1" d="M401.8,285.02c-.08,.52-.12,1.04-.11,1.56,0,7.81,2.02,9.49,11.82,9.49s12.17-1.67,12.17-10.6c0-6.7-.56-7.03-13.28-7.81-14.39-1.04-16.84-3.12-16.84-14.62s3.56-15.06,18.07-15.06,17.97,2.78,18.18,14.55h-6.58c-.23-7.59-1.45-8.48-11.82-8.48s-11.27,1.04-11.27,9.14c0,7.37,.68,7.81,12.17,8.48,16.28,1.12,18.07,2.45,18.07,13.73,0,13.51-3.68,16.62-19.86,16.62-14.06,0-17.07-2.91-17.4-16.96l6.69-.04Z"></path>
  <path class="cls-2" d="M444.2,226.78h38.92v7.14h-31.67v26.22h30.45v7.14h-30.45v33.91h-7.27l.02-74.41Z"></path>
  <path class="cls-2" d="M525.72,252.33c3.12,3.46,4.25,9.59,4.25,22.86,0,22.54-3.12,26.78-19.42,26.78s-19.64-4.02-19.64-27.9c0-21.53,3.36-26.1,19.53-26.1,7.94,.01,12.51,1.35,15.27,4.36Zm-27.53,23.76c0,17.66,1.45,19.97,12.17,19.97s12.39-2.08,12.39-20.98-1.24-21.2-12.17-21.2-12.39,1.9-12.39,22.2Z"></path>
  <path class="cls-2" d="M539.91,248.76h6.69v6.36h.23c2.78-5.35,5.8-7.14,12.27-7.14,8.7,0,12.16,4.01,12.16,14.06v4.24h-6.06c0-10.27-1.34-12.27-8.48-12.27s-10.15,3.46-10.15,10.7v36.48h-6.69l.03-52.43Z"></path>
  <path class="cls-1" d="M579.18,226.78h7.27v67.27h31.68v7.14h-38.95v-74.41Z"></path>
  <path class="cls-1" d="M632.95,276.54v4.79c0,12.39,2.02,14.73,12.72,14.73,9.93,0,11.16-1.12,11.43-10.49h6.58v1.9c0,11.49-3.79,14.55-18.3,14.55-16.4,0-19.64-4.35-19.64-26.23s3.46-27.77,19.52-27.77c14.29,0,18.41,4.69,18.41,20.64v7.93l-30.72-.04Zm24.11-6.59c-.11-7.8-.45-10.15-1.67-12.16-1.57-2.8-4.69-3.91-10.39-3.91s-8.93,1.11-10.48,3.91c-1.23,2.01-1.57,4.57-1.57,12.16h24.12Z"></path>
  <path class="cls-1" d="M680.26,285.02c-.08,.52-.12,1.04-.11,1.56,0,7.81,2.01,9.49,11.82,9.49s12.17-1.67,12.17-10.6c0-6.7-.56-7.03-13.28-7.81-14.39-1.04-16.84-3.12-16.84-14.62s3.56-15.06,18.07-15.06,17.97,2.78,18.18,14.55h-6.58c-.23-7.59-1.45-8.48-11.82-8.48s-11.27,1.04-11.27,9.14c0,7.37,.68,7.81,12.16,8.48,16.29,1.12,18.08,2.45,18.08,13.73,0,13.51-3.68,16.62-19.86,16.62-14.06,0-17.07-2.91-17.4-16.96l6.69-.04Z"></path>
  <path class="cls-1" d="M727.45,285.02c-.08,.52-.12,1.04-.11,1.56,0,7.81,2.01,9.49,11.82,9.49s12.16-1.67,12.16-10.6c0-6.7-.55-7.03-13.27-7.81-14.4-1.04-16.85-3.12-16.85-14.62s3.57-15.06,18.08-15.06,17.95,2.78,18.18,14.55h-6.59c-.22-7.59-1.44-8.48-11.82-8.48s-11.26,1.04-11.26,9.14c0,7.37,.67,7.81,12.16,8.48,16.29,1.12,18.08,2.45,18.08,13.73,0,13.51-3.69,16.62-19.87,16.62-14.06,0-17.06-2.91-17.4-16.96l6.7-.04Z"></path>
  <path class="cls-1" d="M42.18,206.66c0-3.8-.35-7.61-.12-11.43,7.02,23.84,13.7,47.8,20.6,71.69,.38,1.36,.78,2.72,1.16,4.08,26.69-12.47,53.46-24.69,80.08-37.25,8.53-3.62,16.72-8.02,25.33-11.43-.59,.46-1.18,.9-1.8,1.33-33.11,22.06-66.08,44.34-99.13,66.5-7.72,5.25-15.59,10.39-23.24,15.65-.15-1.89-.28-3.77-.31-5.66-.77-31.17-1.62-62.32-2.57-93.44v-.04Z"></path>
  <path class="cls-2" d="M83.62,291.43c33.37-19.79,66.66-39.7,100.09-59.41-18.37,17.4-37.1,34.4-55.62,51.64l-3.25,3.12c21.34,9.35,42.68,18.83,64.13,28.05,7.4,3.48,15.03,6.46,22.41,10.02-42.65-10.88-85.2-22.31-127.8-33.38l.04-.03Z"></path>
  <path d="M310.44,325.77v6.23h-1.14v-6.23l-5.47-8.79h1.29l4.76,7.75,4.74-7.75h1.29l-5.47,8.79Z"></path>
  <path d="M319.71,324.44c0-1.53,.46-3.03,1.31-4.31,.85-1.27,2.06-2.27,3.48-2.85,1.42-.59,2.98-.74,4.48-.44,1.5,.3,2.89,1.04,3.97,2.12,1.08,1.09,1.82,2.47,2.12,3.97,.3,1.5,.14,3.06-.45,4.48-.59,1.42-1.58,2.63-2.86,3.48-1.28,.85-2.78,1.3-4.31,1.3-1.02,0-2.03-.19-2.97-.58-.94-.39-1.8-.96-2.52-1.68s-1.29-1.58-1.68-2.52c-.39-.94-.58-1.95-.57-2.97Zm14.35,0c0-1.31-.4-2.58-1.13-3.66-.73-1.08-1.77-1.92-2.97-2.41-1.21-.49-2.54-.62-3.81-.36-1.28,.26-2.45,.89-3.37,1.82-.92,.93-1.55,2.1-1.8,3.38-.25,1.28-.12,2.61,.38,3.81,.5,1.21,1.35,2.23,2.43,2.96,1.09,.72,2.36,1.11,3.67,1.11,.87,0,1.74-.17,2.54-.5s1.54-.82,2.15-1.44c.62-.62,1.1-1.35,1.43-2.16,.33-.81,.49-1.67,.48-2.55Z"></path>
  <path d="M341.4,326.94v-9.95h1.14v10.01c0,2.44,1.52,4.16,4.35,4.16s4.37-1.71,4.37-4.16v-10.01h1.14v10.01c0,3.17-2.21,5.26-5.52,5.26s-5.5-2.14-5.5-5.31Z"></path>
  <path d="M365.46,325.79h-4.74v6.16h-1.13v-14.97h5.92c1.07,0,2.11,.4,2.91,1.11,.8,.71,1.32,1.69,1.46,2.75,.14,1.06-.11,2.14-.71,3.03-.6,.89-1.49,1.54-2.53,1.82l3.73,6.31h-1.31l-3.61-6.21Zm-4.74-1.04h4.79c.89,0,1.74-.35,2.37-.98,.63-.63,.98-1.48,.98-2.37s-.35-1.74-.98-2.37c-.63-.63-1.48-.98-2.37-.98h-4.79v6.71Z"></path>
  <path d="M394.99,318.02h-4.72v13.94h-1.16v-13.94h-4.7v-1.04h10.6l-.02,1.04Z"></path>
  <path d="M406.89,325.79h-4.75v6.16h-1.1v-14.97h5.92c1.07,0,2.11,.4,2.91,1.11,.8,.71,1.32,1.69,1.46,2.75,.14,1.06-.11,2.14-.71,3.03-.59,.89-1.49,1.54-2.53,1.82l3.73,6.31h-1.31l-3.63-6.21Zm-4.75-1.04h4.79c.89,0,1.74-.35,2.37-.98,.63-.63,.98-1.48,.98-2.37s-.35-1.74-.98-2.37c-.63-.63-1.48-.98-2.37-.98h-4.79v6.71Z"></path>
  <path d="M417.48,326.94v-9.95h1.13v10.01c0,2.44,1.53,4.16,4.36,4.16s4.37-1.71,4.37-4.16v-10.01h1.13v10.01c0,3.17-2.2,5.26-5.51,5.26s-5.5-2.14-5.5-5.31Z"></path>
  <path d="M434.76,328.65l1.04-.58c.51,1.81,2.08,3.02,4.5,3.02s3.78-1.29,3.78-3-1.59-2.48-3.89-3.22c-2.51-.81-4.76-1.52-4.76-4.16s1.99-4.03,4.54-4.03c1.03-.04,2.04,.24,2.9,.8,.86,.56,1.54,1.36,1.93,2.31l-.97,.54c-.29-.79-.81-1.46-1.51-1.93-.7-.47-1.52-.7-2.36-.67-2.08,0-3.39,1.23-3.39,2.9s1.53,2.36,3.67,3.07c2.66,.88,4.98,1.71,4.98,4.31s-1.95,4.16-4.94,4.16c-2.9,.02-4.85-1.4-5.54-3.52Z"></path>
  <path d="M460.31,318.02h-4.72v13.94h-1.15v-13.94h-4.73v-1.04h10.6v1.04Z"></path>
  <path d="M474.97,330.88v1.04h-8.64v-14.94h8.54v1.04h-7.41v5.83h6.87v1.04h-6.87v5.96l7.51,.03Z"></path>
  <path d="M494.13,324.44c0,4.16-2.94,7.51-7.08,7.51h-5.64v-14.97h5.64c4.14,0,7.08,3.32,7.08,7.46Zm-1.11,0c0-3.56-2.42-6.43-5.96-6.43h-4.51v12.87h4.51c3.54,0,5.96-2.88,5.96-6.44Z"></path>
  <path d="M511.17,316.98v15.02h-1.14v-15.02h1.14Z"></path>
  <path d="M527.8,318.02h-4.72v13.94h-1.16v-13.94h-4.72v-1.04h10.6v1.04Z"></path>
  <path d="M552.96,321.58c.01,.62-.1,1.23-.33,1.8-.23,.57-.57,1.09-1.01,1.52-.44,.43-.96,.77-1.53,1-.57,.23-1.19,.33-1.8,.31h-3.97v5.74h-1.14v-14.97h5.11c.61-.02,1.22,.09,1.79,.31,.57,.22,1.09,.56,1.53,.99,.44,.43,.78,.94,1.02,1.51,.23,.57,.35,1.18,.34,1.79Zm-1.14,0c.02-.47-.06-.94-.23-1.38-.17-.44-.43-.84-.76-1.18-.33-.34-.73-.6-1.17-.77-.44-.18-.91-.26-1.38-.24h-3.97v7.14h3.97c.47,.01,.94-.07,1.38-.24,.44-.17,.83-.44,1.17-.77,.33-.33,.59-.73,.76-1.17,.17-.44,.25-.91,.23-1.38Z"></path>
  <path d="M566.57,328.13h-7.53l-1.45,3.82h-1.21l5.84-14.97h1.21l5.81,15.02h-1.19l-1.47-3.88Zm-.41-1.04l-3.35-8.73-3.35,8.73h6.69Z"></path>
  <path d="M580.95,325.79h-4.74v6.16h-1.14v-14.97h5.92c1.07,0,2.11,.4,2.91,1.11,.81,.71,1.33,1.69,1.47,2.75,.14,1.06-.11,2.14-.71,3.04-.6,.89-1.49,1.54-2.53,1.82l3.73,6.31h-1.31l-3.61-6.21Zm-4.74-1.04h4.78c.89,0,1.74-.35,2.37-.98,.63-.63,.98-1.48,.98-2.37s-.35-1.74-.98-2.37c-.63-.63-1.48-.98-2.37-.98h-4.78v6.71Z"></path>
  <path d="M600.77,318.02h-4.72v13.94h-1.15v-13.94h-4.76v-1.04h10.6l.03,1.04Z"></path>
  <path d="M617.79,316.98v15.02h-1.04l-8.83-12.95v12.92h-1.15v-14.99h1.04l8.88,12.93v-12.93h1.1Z"></path>
  <path d="M633.78,330.88v1.04h-8.64v-14.94h8.54v1.04h-7.41v5.83h6.87v1.04h-6.87v5.96l7.51,.03Z"></path>
  <path d="M646.15,325.79h-4.75v6.16h-1.13v-14.97h5.92c1.07,0,2.11,.4,2.91,1.11,.8,.71,1.32,1.69,1.46,2.75,.14,1.06-.11,2.14-.71,3.03-.59,.89-1.49,1.54-2.53,1.82l3.74,6.31h-1.31l-3.61-6.21Zm-4.75-1.04h4.79c.89,0,1.74-.35,2.37-.98,.63-.63,.98-1.48,.98-2.37s-.35-1.74-.98-2.37c-.63-.63-1.48-.98-2.37-.98h-4.79v6.71Z"></path>
</svg>
